name baseline.mot
datacolumns 19
datarows 36
range 5.13665000000000 5.19498100000000
endheader
time	ground_force1_vx	ground_force1_vy	ground_force1_vz	ground_force1_px	ground_force1_py	ground_force1_pz	ground_force2_vx	ground_force2_vy	ground_force2_vz	ground_force2_px	ground_force2_py	ground_force2_pz	ground_torque1_x	ground_torque1_y	ground_torque1_z	ground_torque2_x	ground_torque2_y	ground_torque2_z	
5.13665000000000	3.38042500000000	711.22158899999999	56.84251600000000	0.07804500000000	0.00000000000000	0.14481100000000	0.00000000000000	0.00000000000000	0.00000000000000	0.00000000000000	0.00000000000000	0.00000000000000	0.00000000000000	9.37390200000000	0.00000000000000	0.00000000000000	0.00000000000000	0.00000000000000	
5.13831700000000	2.96671500000000	712.58949600000005	56.85180900000000	0.07691100000000	0.00000000000000	0.14478000000000	0.00000000000000	0.00000000000000	0.00000000000000	0.00000000000000	0.00000000000000	0.00000000000000	0.00000000000000	9.38419900000000	0.00000000000000	0.00000000000000	0.00000000000000	0.00000000000000	
5.13998700000000	2.55331800000000	713.95484299999998	56.86541700000000	0.07577700000000	0.00000000000000	0.14475000000000	0.00000000000000	0.00000000000000	0.00000000000000	0.00000000000000	0.00000000000000	0.00000000000000	0.00000000000000	9.39468800000000	0.00000000000000	0.00000000000000	0.00000000000000	0.00000000000000	
5.14164700000000	2.13985100000000	715.31561299999998	56.88295200000000	0.07464200000000	0.00000000000000	0.14472100000000	0.00000000000000	0.00000000000000	0.00000000000000	0.00000000000000	0.00000000000000	0.00000000000000	0.00000000000000	9.40548500000000	0.00000000000000	0.00000000000000	0.00000000000000	0.00000000000000	
5.14331000000000	1.72593600000000	716.66991800000005	56.90403900000000	0.07350700000000	0.00000000000000	0.14469300000000	0.00000000000000	0.00000000000000	0.00000000000000	0.00000000000000	0.00000000000000	0.00000000000000	0.00000000000000	9.41671100000000	0.00000000000000	0.00000000000000	0.00000000000000	0.00000000000000	
5.14498600000000	1.31119700000000	718.01600599999995	56.92831700000000	0.07237200000000	0.00000000000000	0.14466600000000	0.00000000000000	0.00000000000000	0.00000000000000	0.00000000000000	0.00000000000000	0.00000000000000	0.00000000000000	9.42849100000000	0.00000000000000	0.00000000000000	0.00000000000000	0.00000000000000	
5.14664800000000	0.89526600000000	719.35225900000000	56.95543900000000	0.07123800000000	0.00000000000000	0.14463900000000	0.00000000000000	0.00000000000000	0.00000000000000	0.00000000000000	0.00000000000000	0.00000000000000	0.00000000000000	9.44094900000000	0.00000000000000	0.00000000000000	0.00000000000000	0.00000000000000	
5.14831300000000	0.47778000000000	720.67719299999999	56.98507700000000	0.07010500000000	0.00000000000000	0.14461400000000	0.00000000000000	0.00000000000000	0.00000000000000	0.00000000000000	0.00000000000000	0.00000000000000	0.00000000000000	9.45421100000000	0.00000000000000	0.00000000000000	0.00000000000000	0.00000000000000	
5.14999200000000	0.05839100000000	721.98945900000001	57.01691600000000	0.06897300000000	0.00000000000000	0.14458800000000	0.00000000000000	0.00000000000000	0.00000000000000	0.00000000000000	0.00000000000000	0.00000000000000	0.00000000000000	9.46840100000000	0.00000000000000	0.00000000000000	0.00000000000000	0.00000000000000	
5.15164900000000	-0.36324300000000	723.28784099999996	57.05066300000000	0.06784300000000	0.00000000000000	0.14456300000000	0.00000000000000	0.00000000000000	0.00000000000000	0.00000000000000	0.00000000000000	0.00000000000000	0.00000000000000	9.48364200000000	0.00000000000000	0.00000000000000	0.00000000000000	0.00000000000000	
5.15331000000000	-0.78744500000000	724.57125399999995	57.08604200000000	0.06671500000000	0.00000000000000	0.14453900000000	0.00000000000000	0.00000000000000	0.00000000000000	0.00000000000000	0.00000000000000	0.00000000000000	0.00000000000000	9.50005400000000	0.00000000000000	0.00000000000000	0.00000000000000	0.00000000000000	
5.15498100000000	-1.21452800000000	725.83874600000001	57.12279700000000	0.06558900000000	0.00000000000000	0.14451500000000	0.00000000000000	0.00000000000000	0.00000000000000	0.00000000000000	0.00000000000000	0.00000000000000	0.00000000000000	9.51775500000000	0.00000000000000	0.00000000000000	0.00000000000000	0.00000000000000	
5.15664500000000	-1.64478700000000	727.08948899999996	57.16069600000000	0.06446600000000	0.00000000000000	0.14449000000000	0.00000000000000	0.00000000000000	0.00000000000000	0.00000000000000	0.00000000000000	0.00000000000000	0.00000000000000	9.53685600000000	0.00000000000000	0.00000000000000	0.00000000000000	0.00000000000000	
5.15831500000000	-2.07849800000000	728.32278199999996	57.19952600000000	0.06334500000000	0.00000000000000	0.14446600000000	0.00000000000000	0.00000000000000	0.00000000000000	0.00000000000000	0.00000000000000	0.00000000000000	0.00000000000000	9.55746600000000	0.00000000000000	0.00000000000000	0.00000000000000	0.00000000000000	
5.15998600000000	-2.51592100000000	729.53804500000001	57.23909600000000	0.06222600000000	0.00000000000000	0.14444200000000	0.00000000000000	0.00000000000000	0.00000000000000	0.00000000000000	0.00000000000000	0.00000000000000	0.00000000000000	9.57968400000000	0.00000000000000	0.00000000000000	0.00000000000000	0.00000000000000	
5.16164300000000	-2.95729300000000	730.73481600000002	57.27924200000000	0.06111100000000	0.00000000000000	0.14441800000000	0.00000000000000	0.00000000000000	0.00000000000000	0.00000000000000	0.00000000000000	0.00000000000000	0.00000000000000	9.60360500000000	0.00000000000000	0.00000000000000	0.00000000000000	0.00000000000000	
5.16331700000000	-3.40283200000000	731.91274399999998	57.31981800000000	0.05999800000000	0.00000000000000	0.14439400000000	0.00000000000000	0.00000000000000	0.00000000000000	0.00000000000000	0.00000000000000	0.00000000000000	0.00000000000000	9.62931600000000	0.00000000000000	0.00000000000000	0.00000000000000	0.00000000000000	
5.16499500000000	-3.85273300000000	733.07158900000002	57.36070800000000	0.05888900000000	0.00000000000000	0.14437000000000	0.00000000000000	0.00000000000000	0.00000000000000	0.00000000000000	0.00000000000000	0.00000000000000	0.00000000000000	9.65689600000000	0.00000000000000	0.00000000000000	0.00000000000000	0.00000000000000	
5.16665100000000	-4.30716700000000	734.21121500000004	57.40181500000000	0.05778300000000	0.00000000000000	0.14434500000000	0.00000000000000	0.00000000000000	0.00000000000000	0.00000000000000	0.00000000000000	0.00000000000000	0.00000000000000	9.68641200000000	0.00000000000000	0.00000000000000	0.00000000000000	0.00000000000000	
5.16831500000000	-4.76628400000000	735.33158400000002	57.44306900000000	0.05668000000000	0.00000000000000	0.14432000000000	0.00000000000000	0.00000000000000	0.00000000000000	0.00000000000000	0.00000000000000	0.00000000000000	0.00000000000000	9.71792600000000	0.00000000000000	0.00000000000000	0.00000000000000	0.00000000000000	
5.16997700000000	-5.23020700000000	736.43275100000005	57.48442500000000	0.05558000000000	0.00000000000000	0.14429500000000	0.00000000000000	0.00000000000000	0.00000000000000	0.00000000000000	0.00000000000000	0.00000000000000	0.00000000000000	9.75148600000000	0.00000000000000	0.00000000000000	0.00000000000000	0.00000000000000	
5.17165100000000	-5.69903600000000	737.51486000000000	57.52586200000000	0.05448400000000	0.00000000000000	0.14427000000000	0.00000000000000	0.00000000000000	0.00000000000000	0.00000000000000	0.00000000000000	0.00000000000000	0.00000000000000	9.78713400000000	0.00000000000000	0.00000000000000	0.00000000000000	0.00000000000000	
5.17331200000000	-6.17284600000000	738.57813699999997	57.56738300000000	0.05339200000000	0.00000000000000	0.14424400000000	0.00000000000000	0.00000000000000	0.00000000000000	0.00000000000000	0.00000000000000	0.00000000000000	0.00000000000000	9.82489700000000	0.00000000000000	0.00000000000000	0.00000000000000	0.00000000000000	
5.17498200000000	-6.65168400000000	739.62288200000000	57.60901500000000	0.05230300000000	0.00000000000000	0.14421800000000	0.00000000000000	0.00000000000000	0.00000000000000	0.00000000000000	0.00000000000000	0.00000000000000	0.00000000000000	9.86479400000000	0.00000000000000	0.00000000000000	0.00000000000000	0.00000000000000	
5.17664800000000	-7.13557600000000	740.64946699999996	57.65081100000000	0.05121700000000	0.00000000000000	0.14419200000000	0.00000000000000	0.00000000000000	0.00000000000000	0.00000000000000	0.00000000000000	0.00000000000000	0.00000000000000	9.90683000000000	0.00000000000000	0.00000000000000	0.00000000000000	0.00000000000000	
5.17831600000000	-7.62451800000000	741.65832699999999	57.69284400000000	0.05013500000000	0.00000000000000	0.14416600000000	0.00000000000000	0.00000000000000	0.00000000000000	0.00000000000000	0.00000000000000	0.00000000000000	0.00000000000000	9.95100200000000	0.00000000000000	0.00000000000000	0.00000000000000	0.00000000000000	
5.17998200000000	-8.11848500000000	742.64995499999998	57.73521300000000	0.04905700000000	0.00000000000000	0.14413900000000	0.00000000000000	0.00000000000000	0.00000000000000	0.00000000000000	0.00000000000000	0.00000000000000	0.00000000000000	9.99729200000000	0.00000000000000	0.00000000000000	0.00000000000000	0.00000000000000	
5.18164900000000	-8.61742300000000	743.62489400000004	57.77803700000000	0.04798200000000	0.00000000000000	0.14411200000000	0.00000000000000	0.00000000000000	0.00000000000000	0.00000000000000	0.00000000000000	0.00000000000000	0.00000000000000	10.04567300000000	0.00000000000000	0.00000000000000	0.00000000000000	0.00000000000000	
5.18331100000000	-9.12125500000000	744.58373300000005	57.82145800000000	0.04691100000000	0.00000000000000	0.14408500000000	0.00000000000000	0.00000000000000	0.00000000000000	0.00000000000000	0.00000000000000	0.00000000000000	0.00000000000000	10.09610500000000	0.00000000000000	0.00000000000000	0.00000000000000	0.00000000000000	
5.18498600000000	-9.62988200000000	745.52709700000003	57.86563700000000	0.04584300000000	0.00000000000000	0.14405700000000	0.00000000000000	0.00000000000000	0.00000000000000	0.00000000000000	0.00000000000000	0.00000000000000	0.00000000000000	10.14853800000000	0.00000000000000	0.00000000000000	0.00000000000000	0.00000000000000	
5.18664300000000	-10.14317900000000	746.45564800000000	57.91075300000000	0.04477900000000	0.00000000000000	0.14403000000000	0.00000000000000	0.00000000000000	0.00000000000000	0.00000000000000	0.00000000000000	0.00000000000000	0.00000000000000	10.20291000000000	0.00000000000000	0.00000000000000	0.00000000000000	0.00000000000000	
5.18831200000000	-10.66099700000000	747.37007100000005	57.95700600000000	0.04371800000000	0.00000000000000	0.14400200000000	0.00000000000000	0.00000000000000	0.00000000000000	0.00000000000000	0.00000000000000	0.00000000000000	0.00000000000000	10.25914700000000	0.00000000000000	0.00000000000000	0.00000000000000	0.00000000000000	
5.18998200000000	-11.18316800000000	748.27107100000001	58.00461200000000	0.04266100000000	0.00000000000000	0.14397400000000	0.00000000000000	0.00000000000000	0.00000000000000	0.00000000000000	0.00000000000000	0.00000000000000	0.00000000000000	10.31716700000000	0.00000000000000	0.00000000000000	0.00000000000000	0.00000000000000	
5.19164800000000	-11.70950100000000	749.15936799999997	58.05379900000000	0.04160800000000	0.00000000000000	0.14394600000000	0.00000000000000	0.00000000000000	0.00000000000000	0.00000000000000	0.00000000000000	0.00000000000000	0.00000000000000	10.37687500000000	0.00000000000000	0.00000000000000	0.00000000000000	0.00000000000000	
5.19331800000000	-12.23978400000000	750.03569200000004	58.10481400000000	0.04055800000000	0.00000000000000	0.14391900000000	0.00000000000000	0.00000000000000	0.00000000000000	0.00000000000000	0.00000000000000	0.00000000000000	0.00000000000000	10.43816700000000	0.00000000000000	0.00000000000000	0.00000000000000	0.00000000000000	
5.19498100000000	-12.77378700000000	750.90077499999995	58.15791400000000	0.03951200000000	0.00000000000000	0.14389100000000	0.00000000000000	0.00000000000000	0.00000000000000	0.00000000000000	0.00000000000000	0.00000000000000	0.00000000000000	10.50093100000000	0.00000000000000	0.00000000000000	0.00000000000000	0.00000000000000	
